/* XPM */
static char * ball_xpm[] = {
"64 64 10 1",
" 	c #FF00FF",
".	c #C4A447",
"+	c #CEB054",
"@	c #D8BC62",
"#	c #E1C86F",
"$	c #EBD47D",
"%	c #F5E08A",
"&	c #FFED98",
"*	c #B18C2C",
"=	c #BA9839",
"                                                                ",
"                                                                ",
"                                                                ",
"                                                                ",
"                                                                ",
"                                                                ",
"                                                                ",
"                                                                ",
"                                                                ",
"                                                                ",
"                                                                ",
"                                                                ",
"                                                                ",
"                                                                ",
"                                                                ",
"                                                                ",
"                                                                ",
"                                                                ",
"                                                                ",
"                                                                ",
"                                                                ",
"                                                                ",
"                                                                ",
"                                                                ",
"                                                                ",
"                              ......                            ",
"                            ..++++++...                         ",
"                           .+++++++++++.                        ",
"                        .+++@@@###@@@@++++                      ",
"                        +++@@##$$$###$%@++.                     ",
"                       .++@##$$%%%$$$&&&@++.                    ",
"                      .+@@#%%%&&&&&&%&&&&@++.                   ",
"                     .++@#$%&&&&&&&&&&&&&@+++                   ",
"                     .++#$%&&&&&&&&&&&&&%@+++                   ",
"                     ++@$%%&&&&&&&&&&&&%$#@++*                  ",
"                     ++@$%&&&&&&&&&&&&&%$#@++*                  ",
"                    .+@#%%&&&&&&&&&&&&&%%$@++=*                 ",
"                    .+@#%&&&&&&&&&&&&&&&%$@@+.*                 ",
"                    .+@#%&&&&&&&&&&&&&&&%$@@+.*                 ",
"                    .+@#%&&&&&&&&&&&&&&&%$@@+.*                 ",
"                    .+@#%&&&&&&&&&&&&&&%%$@@+.*                 ",
"                    .+@@%%&&&&&&&&&&&&&%%$@++=*                 ",
"                     ++@$%&&&&&&&&&&&&&%$#@++*                  ",
"                     .++#$%&&&&&&&&&&&&$##+++*                  ",
"                     *++#$$&&&&&&&&&&&%$#@+++                   ",
"                     *.+@#$%&&&&&&&&&%%#@@++.                   ",
"                      *=++@$$%%%&%%%$$#@+++.*                   ",
"                       *+++@#$$%%%%$##@++++*                    ",
"                        +++@@##$$$##@@@+++*                     ",
"                         **+++++@@@++++.**                      ",
"                           *=.+++++++.=*                        ",
"                            **=..++.***                         ",
"                                                                ",
"                                                                ",
"                                                                ",
"                                                                ",
"                                                                ",
"                                                                ",
"                                                                ",
"                                                                ",
"                                                                ",
"                                                                ",
"                                                                ",
"                                                                "};
