/* XPM */
static char * staff_xpm[] = {
"64 64 19 1",
" 	c #FF00FF",
".	c #000000",
"+	c #713D44",
"@	c #B65358",
"#	c #934C4B",
"$	c #DA6B75",
"%	c #4F2E3D",
"&	c #FFFFFF",
"*	c #AF8032",
"=	c #EEC733",
"-	c #634047",
";	c #87582C",
">	c #DFDCD9",
",	c #959194",
"'	c #64595C",
")	c #777377",
"!	c #48454C",
"~	c #D8A838",
"{	c #AFADAF",
"                                                                ",
"                                                                ",
"                                                                ",
"                                                                ",
"                                                                ",
"                                                                ",
"                                                                ",
"                                                                ",
"                             ..                                 ",
"                           +@@@@#.                              ",
"                         .$$$@@@@#%                             ",
"                         @$$#&&@@#@.                            ",
"                        %@$$&%%&@#+#                            ",
"                       .*@@@&%%&###@.  %                        ",
"                      .=*=###&&#####.  -.                       ",
"                     .=====########+%  -%                       ",
"                     *;*****;#####+++.%%%.                      ",
"                        ++++#####++++%%%%%                      ",
"                       &>&&&&&&&&>,')) %%%                      ",
"                       >,>>&>>>>>,,'')  .%                      ",
"                       ,!>)!>!!>!!,!!)   %                      ",
"                        '''',,'!!!',     %                      ",
"                          )',,'!!'.      .                      ",
"                           )','!'!                              ",
"                            ,>,))                               ",
"                           .!'!%.                               ",
"                           .~~~*;                               ",
"                           .=~~**                               ",
"                           .;;;;;                               ",
"                             >,.                                ",
"                             >,.                                ",
"                             >,.                                ",
"                             >,.                                ",
"                             >,.                                ",
"                             >,.                                ",
"                             >,.                                ",
"                             >,.                                ",
"                             >,.                                ",
"                             >,.                                ",
"                             >,.                                ",
"                             >,.                                ",
"                             >,.                                ",
"                             >,.                                ",
"                             >,.                                ",
"                             >,.                                ",
"                             >,.                                ",
"                             >,.                                ",
"                             >,.                                ",
"                             >,.                                ",
"                             >,.                                ",
"                             ''.                                ",
"                            ,>>')                               ",
"                           ',>>').                              ",
"                           ,!{!,!.                              ",
"                             ;;;                                ",
"                             =;;                                ",
"                             ;;;                                ",
"                             ;;.                                ",
"                              .                                 ",
"                                                                ",
"                                                                ",
"                                                                ",
"                                                                ",
"                                                                "};
