/* XPM */
static char * staff_xpm[] = {
"32 32 19 1",
" 	c #FF00FF",
".	c #713D44",
"+	c #B65358",
"@	c #000000",
"#	c #DA6B75",
"$	c #FFFFFF",
"%	c #934C4B",
"&	c #4F2E3D",
"*	c #EEC733",
"=	c #634047",
"-	c #DFDCD9",
";	c #959194",
">	c #64595C",
",	c #777377",
"'	c #48454C",
")	c #D8A838",
"!	c #AF8032",
"~	c #AFADAF",
"{	c #87582C",
"                                ",
"                                ",
"                                ",
"                                ",
"             .++@               ",
"            +#$+%@              ",
"           @++&$%+ &            ",
"          @**%%%%. =            ",
"            ..%%..&&&           ",
"           --$--;>, &           ",
"            >>;'';  &           ",
"             ,;''               ",
"             @>&                ",
"             @)!                ",
"              -@                ",
"              -@                ",
"              -@                ",
"              -@                ",
"              -@                ",
"              -@                ",
"              -@                ",
"              -@                ",
"              -@                ",
"              -@                ",
"              -@                ",
"              ->                ",
"             ;~;@               ",
"              *{                ",
"              {@                ",
"                                ",
"                                ",
"                                "};
