/* XPM */
static char * teste_xpm[] = {
"64 64 218 2",
"  	c #FF00FF",
". 	c #FF15FE",
"+ 	c #FF1BFE",
"@ 	c #FF61F0",
"# 	c #FF91DA",
"$ 	c #FF85E1",
"% 	c #FF0CFF",
"& 	c #FFF14B",
"* 	c #FFE379",
"= 	c #FFB3C0",
"- 	c #FF63F0",
"; 	c #FF20FD",
"> 	c #FF29FC",
", 	c #FF30FC",
"' 	c #FFA7CA",
") 	c #FFF723",
"! 	c #FFB5BD",
"~ 	c #FF75E9",
"{ 	c #FF44F8",
"] 	c #FF5EF1",
"^ 	c #FF71EA",
"/ 	c #FFF04F",
"( 	c #FF92D9",
"_ 	c #FF40F9",
": 	c #FF65EF",
"< 	c #FF8CDD",
"[ 	c #FFC1B1",
"} 	c #FFE670",
"| 	c #FF6CEC",
"1 	c #FF33FB",
"2 	c #FF90DA",
"3 	c #FF84E2",
"4 	c #FF69ED",
"5 	c #FF3BFA",
"6 	c #FF6DEC",
"7 	c #FFD88F",
"8 	c #FFF62B",
"9 	c #FFE07E",
"0 	c #FF76E8",
"a 	c #FF46F8",
"b 	c #FFA5CC",
"c 	c #FF4AF7",
"d 	c #FF68EE",
"e 	c #FFA6CB",
"f 	c #FFEA64",
"g 	c #FFF531",
"h 	c #FFA8C9",
"i 	c #FFF14C",
"j 	c #FFE968",
"k 	c #FFD595",
"l 	c #FFAAC8",
"m 	c #FF8FDB",
"n 	c #FF2CFC",
"o 	c #FFF051",
"p 	c #FF9ED1",
"q 	c #FF79E7",
"r 	c #FFE66F",
"s 	c #FFF536",
"t 	c #FFBAB8",
"u 	c #FFF725",
"v 	c #FFF721",
"w 	c #FFE76C",
"x 	c #FFC3AE",
"y 	c #FFC5AC",
"z 	c #FFBEB3",
"A 	c #FFB0C2",
"B 	c #FFF62A",
"C 	c #FFE76D",
"D 	c #FFF543",
"E 	c #FFF53C",
"F 	c #FFD299",
"G 	c #FF67EE",
"H 	c #FF7CE6",
"I 	c #FFF742",
"J 	c #FFF737",
"K 	c #FFF72C",
"L 	c #FFD495",
"M 	c #FF97D6",
"N 	c #FF93D9",
"O 	c #FFCE9E",
"P 	c #FFD791",
"Q 	c #FFD09D",
"R 	c #FFDE82",
"S 	c #FF8DDC",
"T 	c #FFDF82",
"U 	c #FFF62F",
"V 	c #FFF731",
"W 	c #FFF740",
"X 	c #FFF74D",
"Y 	c #FFF535",
"Z 	c #FFBDB5",
"` 	c #FF6EEB",
" .	c #FFE86B",
"..	c #FFFA49",
"+.	c #FF50F5",
"@.	c #FFE969",
"#.	c #FFCCA3",
"$.	c #FF88DF",
"%.	c #FFF724",
"&.	c #FF7EE5",
"*.	c #FFADC5",
"=.	c #FFFC74",
"-.	c #FFC4AC",
";.	c #FF72EA",
">.	c #FFA8CA",
",.	c #FF74E9",
"'.	c #FFAFC4",
").	c #FFE86C",
"!.	c #FFD790",
"~.	c #FFFF9C",
"{.	c #FF36FB",
"].	c #FF95D7",
"^.	c #FFDB89",
"/.	c #FF7BE6",
"(.	c #FFF532",
"_.	c #FFE573",
":.	c #FFAEC4",
"<.	c #FF66EF",
"[.	c #FFC4AD",
"}.	c #FDB8BC",
"|.	c #FE96D8",
"1.	c #FFC2AF",
"2.	c #FFFF41",
"3.	c #FFFF99",
"4.	c #FFFFD2",
"5.	c #FFFED9",
"6.	c #FFFC9D",
"7.	c #FFF83F",
"8.	c #FFD19B",
"9.	c #FEEA69",
"0.	c #FEF82A",
"a.	c #FEE479",
"b.	c #FF64EF",
"c.	c #FF45F8",
"d.	c #FED29A",
"e.	c #FFEC6D",
"f.	c #FFFF5D",
"g.	c #FFF95D",
"h.	c #FFB3BF",
"i.	c #FF89DF",
"j.	c #FFFA54",
"k.	c #FFFC7E",
"l.	c #FFFF24",
"m.	c #FFFFB6",
"n.	c #FFFFEF",
"o.	c #FFFFF7",
"p.	c #FFFDBB",
"q.	c #FFF880",
"r.	c #FEF14E",
"s.	c #FFBCB6",
"t.	c #FFFFA6",
"u.	c #FFFDEF",
"v.	c #FFFBB8",
"w.	c #FFF766",
"x.	c #FECDA3",
"y.	c #FEC5AD",
"z.	c #FF94D8",
"A.	c #FF77E8",
"B.	c #FFA3CD",
"C.	c #FFC1B0",
"D.	c #FFC3AF",
"E.	c #FFDA8B",
"F.	c #FFF726",
"G.	c #FFFCA5",
"H.	c #FFFFF8",
"I.	c #FFFFFF",
"J.	c #FFFEEF",
"K.	c #FFFFEB",
"L.	c #FFF776",
"M.	c #FFF702",
"N.	c #FFF82D",
"O.	c #FFEA65",
"P.	c #FFD692",
"Q.	c #FF95D8",
"R.	c #FFF43E",
"S.	c #FFFCBA",
"T.	c #FFFA85",
"U.	c #FFF782",
"V.	c #FFF763",
"W.	c #FFE672",
"X.	c #FFD594",
"Y.	c #FFF761",
"Z.	c #FFFC9A",
"`.	c #FFFECC",
" +	c #FFFFDF",
".+	c #FFFDCD",
"++	c #FFFDCA",
"@+	c #FFCDA0",
"#+	c #FF88E0",
"$+	c #FFE475",
"%+	c #FFF95F",
"&+	c #FFFB9B",
"*+	c #FFFCA7",
"=+	c #FFFA92",
"-+	c #FFF75A",
";+	c #FEF85A",
">+	c #FFFB97",
",+	c #FFF95A",
"'+	c #FFBBB7",
")+	c #FF70EB",
"!+	c #FF8ADE",
"~+	c #FFACC6",
"{+	c #FFF72F",
"]+	c #FFF632",
"^+	c #FFEF56",
"/+	c #FFEF54",
"(+	c #FFF62D",
"_+	c #FFF72B",
":+	c #FFF052",
"<+	c #FFD98E",
"[+	c #FFA4CD",
"}+	c #FF6BED",
"|+	c #FFB1C1",
"1+	c #FFD09E",
"2+	c #FFE081",
"3+	c #FFB1C2",
"4+	c #FFCF9E",
"5+	c #FF3EF9",
"                                                                                                                                ",
"                                                                                                                                ",
"                                                                                                                                ",
"                                                                                                                                ",
"                                                                                                                                ",
"                                                                                                                                ",
"                                                                                                                                ",
"                                                                                                                                ",
"                                                                                                                                ",
"                                                                                                                                ",
"                                                                                                                                ",
"                                                                                                                                ",
"                                                                                                                                ",
"                                                                                                                                ",
"                                                                                                                                ",
"                                                                                                                                ",
"                                                                                                                                ",
"                                                                                                                                ",
"                                                                                                                                ",
"                                                                                                                                ",
"                                                                                                                                ",
"                                                                                                                                ",
"                                                                                                                                ",
"                                                                                                                                ",
"                                                                                                                                ",
"                                                                                                                                ",
"                                                                                                                                ",
"                                                                                                                                ",
"                                                                                                                                ",
"                                                                                                                                ",
"                                                                                                                                ",
"                                                                                                                                ",
"                                                                                                                                ",
"                                  . . . . . . . .                                                                               ",
"                                  . . . . . . . .                                                                               ",
"                                  + + @ # $ @ % % % %                                         % % % % % % % %                   ",
"                                  + + # & * = - % % %                                         % % % % ; % % %                   ",
"          > > > > . . . .         , , ' ) ) & ! ~ { %                                         % ] ^ ^ ; ; % %                   ",
"          > > > > . . . .         , , # ) ) ) / ( - %             _ _ _ _                   : < [ } [ | ; % %                   ",
"      % % 1 ^ 2 2 3 ] 4 ; ; ; % % 5 5 6 7 8 8 8 9 0 a         % % a b b a % %         + c d e f g g f 2 > % %                   ",
"      % % 1 h i i j k l m 4 ; % % 5 5 n < o 8 8 8 p a         % a q r r q a %         c d e ) s s g f 2 > % %                   ",
"      % % 1 t u u u u v w x m ~ 5 % % n 6 y 8 8 8 z a % % . . % a A B B A a % % %     c e C ) D E g F G % % %                   ",
"      % % 1 H k u u u I J K v L M d % n n 6 y C C N a % % . . % : O B B P q % % %     c Q ) ) E g R S G % % %                   ",
"            5 q t T U V W X W Y Y Z | n n n ` | | | n + + + + 5 N  ..... .N 5 % % % % +.y 8 8 @.#.m - . .                       ",
"              a a $.A 7 %.V X Y Y Y l n n n n n n &.| { + + + 5 *.v =.=.v -.;.% % % % +.+.>.>.m ,.+ + . .                       ",
"              % % a a 0 '.).%.Y Y Y y 5 % % % n | P } S @ { { ;.!...~.~... .N % % {.{.n n n n + + + +                           ",
"              % % % % { 0 ].7 ).Y ^./.5 % % % n &.} (._.:.{ { N v =.~.~.=.v *.- - ` ` < >.< 6 + + + +                           ",
"                      % % n ` 2 2 &.5 % % % %   <.[.u K @.}.|.1.2.3.4.5.6.7.8.e e y T 9.0.a.b.{.{.% %                           ",
"                      % % n n > > % % % % % %   c.e u K K K d.e.f.4.4.5.5.g.v s s s s 0.0.h.b.{.{.% %                           ",
"                      % % % % % % % % % % % %     i.!.j.k.K K l.m.n.n.o.o.p.7.q.q.q.s r.s.~ ~ {.{.{.%                           ",
"                      % % % % % % % % > > % G <.<.i.[.K t.t.k.m.n.n.n.o.o.o.o.u.v.w.s x.y.y.y.[.z.{.%                           ",
"                                      % A.B.C.D.D.D.E.F.G.n.n.n.n.H.I.I.I.J.J.K.L.M.N.O.%.%.%.(.P.a %                           ",
"                                      % Q.R.R.%.%.%.%.F.G.n.n.n.n.n.n.J.J.J.J.K.S.T.T.U.V.%.%.W.].a %                           ",
"                                      { { Q.X.%.%.%.Y.Z.`. + + + +`.`..+.+.+.+++++S.S.U.%.%.@+#+: a %                           ",
"                                      % { % : >.$+%.%.%+&+G.G.*+*+=+-+;+>+>+>+&+&+T.,+%.O.'+~ % % % %                           ",
"                                          ; ; )+!+~+* {+{+{+{+]+]+]+^+/+(+(+(+_+_+_+:+<+[+}+% . .                               ",
"                                          ; ; % % ] !+|+1+2+2+P [.3+e b b A t [.4+[.e A.5+% % . .                               ",
"                                              % % % _ c d /.d d d c c a a a : <.<.<.c.5+% % %                                   ",
"                                              % % % % + + + + + + + + % % % %         % % % %                                   ",
"                                                                                                                                ",
"                                                                                                                                ",
"                                                                                                                                ",
"                                                                                                                                ",
"                                                                                                                                "};
